<svg xmlns="http://www.w3.org/2000/svg" xmlns:xlink="http://www.w3.org/1999/xlink" version="1.1" x="0px" y="0px" viewBox="0 0 100 100" style="enable-background:new 0 0 100 100;" xml:space="preserve"><g><path d="M69.2098236,35.2163086v-6.0610352C69.2098236,20.7988281,62.408062,14,54.0467339,14h-8.09375   c-8.3613281,0-15.163084,6.7988281-15.163084,15.1552734v6.0605469c-1.2587891,0.9433594-2.0234375,2.4370117-2.0234375,4.03125   c0,1.3486328,0.5244141,2.6162109,1.4814453,3.5732422c0.9628906,0.9482422,2.2285137,1.4707031,3.5654278,1.4707031h0.0117188   v4.3085938c0,5.7895508,4.4541016,10.5529785,10.1162109,11.0605469v2.0947266h-1.0234375   c-1.1611328,0-2.3056641,0.2216797-3.4042969,0.6572266c-0.0012207,0.0004883-0.0019531,0.0014648-0.003418,0.0019531   c-0.0009766,0.0004883-0.0021973,0.0004883-0.003418,0.0009766c-3.4511719,1.4013672-5.6816406,4.7099609-5.6816406,8.4296875   v12.1328125C33.8250542,84.6445313,35.1814995,86,36.8484917,86h3.0341797h20.234375h3.0341797   c1.666996,0,3.0234413-1.3554688,3.0234413-3.0224609V70.8447266c0-3.7197266-2.2304726-7.0283203-5.6816444-8.4296875   c-0.0009766-0.0004883-0.0021973-0.0004883-0.0031738-0.0009766c-0.0012207-0.0004883-0.0021973-0.0014648-0.0036621-0.0019531   c-1.0986328-0.4355469-2.2431641-0.6572266-3.4042969-0.6572266h-1.0234375v-2.0947266   c5.6625977-0.5075684,10.1162148-5.2709961,10.1162148-11.0605469v-4.3085938h0.0117188   c1.3369141,0,2.6025391-0.5224609,3.5703125-1.4755859c0.9521484-0.9521484,1.4765625-2.2197266,1.4765625-3.5683594   C71.2332611,37.652832,70.469101,36.1591797,69.2098236,35.2163086z M33.8133354,42.2910156   c-0.8085938,0-1.5761719-0.3173828-2.1562481-0.8896484c-0.5742188-0.5742188-0.890625-1.3398438-0.890625-2.1542969   c0-1.0839844,0.5830078-2.0917969,1.522459-2.6328125c0.4755859-0.2734375,0.9882813-0.4121094,1.5244141-0.4121094   l0.0117188,6.0888672H33.8133354z M38.8826714,84h-2.0341797c-0.5644531,0-1.0234375-0.4589844-1.0234375-1.0224609V70.8447266   c0-2.3710938,1.1621094-4.5292969,3.0576172-5.8349609V84z M61.1170464,65.0097656   c1.8955078,1.3056641,3.057621,3.4638672,3.057621,5.8349609v12.1328125C64.1746674,83.5410156,63.7156792,84,63.151226,84   h-2.0341797V65.0097656z M45.0604057,27.7304688l5.8808594,4.7021484H40.9085503L45.0604057,27.7304688z M54.0584526,62.7548828   c0,2.2363281-1.8203125,4.0556641-4.0585938,4.0556641s-4.0585938-1.8193359-4.0585938-4.0556641v-3.0439453h8.1171875V62.7548828z    M64.1746674,43.2910156v5.3085938c0,5.0244141-4.0898476,9.1113281-9.1162148,9.1113281H44.9412651   c-5.0263672,0-9.1162109-4.0869141-9.1162109-9.1113281v-5.3085938v-5.1015625l3.3173828-3.7568359h14.300293l4.1992188,3.357666   c-0.1706543-0.0197754-0.34375-0.0305176-0.519043-0.0275879c-1.4472656,0.0195313-2.7705078,0.8369141-3.3730469,2.0810547   c-0.2402344,0.4970703-0.0322266,1.0947266,0.4648438,1.3359375c0.5,0.2402344,1.0957031,0.03125,1.3359375-0.4648438   c0.2753906-0.5693359,0.9033203-0.9423828,1.5996094-0.9521484c0.0097656,0,0.0185547,0,0.0273438,0   c0.7011719,0,1.3544922,0.3798828,1.6308594,0.9521484c0.1728516,0.3574219,0.5292969,0.5644531,0.9013672,0.5644531   c0.1455078,0,0.2949219-0.0322266,0.4345703-0.0996094c0.3688965-0.1789551,0.5761719-0.5544434,0.5617676-0.939209   l3.4685097,2.7734375V43.2910156z M68.3475189,41.3964844c-0.5849609,0.5771484-1.3525391,0.8945313-2.1611328,0.8945313   h-0.0117188v-6.0888672h0.0117188c0.5361328,0,1.0488281,0.1386719,1.5244141,0.4130859   c0.9394531,0.5400391,1.5224609,1.5478516,1.5224609,2.6318359C69.2332611,40.0615234,68.9168549,40.8271484,68.3475189,41.3964844   z"></path><path d="M46.2498589,39.84375c-0.6220703-1.2851563-1.9921875-2.1064453-3.4863281-2.0810547   c-1.4482422,0.0195313-2.7724609,0.8369141-3.3730469,2.0820313c-0.2402344,0.4970703-0.0322266,1.0947266,0.4658203,1.3349609   c0.4970703,0.2402344,1.0957031,0.0322266,1.3349609-0.4658203c0.2744141-0.5683594,0.9023438-0.9414063,1.5996094-0.9511719   c0.0097656,0,0.0185547,0,0.0273438,0c0.7011719,0,1.3544922,0.3798828,1.6308594,0.9521484   c0.1728516,0.3574219,0.5292969,0.5644531,0.9013672,0.5644531c0.1455078,0,0.2949219-0.0322266,0.4345703-0.0996094   C46.2820854,40.9384766,46.4900932,40.3408203,46.2498589,39.84375z"></path><path d="M53.5369682,48.2402344c-0.4794922-0.2792969-1.0898438-0.1142578-1.3671875,0.3632813   c-0.3603516,0.6201172-1.2734375,1.0488281-2.2099609,1.0175781c-0.9267578-0.0107422-1.7822266-0.4199219-2.1308594-1.0185547   c-0.2783203-0.4775391-0.890625-0.6396484-1.3671875-0.3613281c-0.4775391,0.2773438-0.6396484,0.8896484-0.3613281,1.3671875   c0.7109375,1.2226563,2.1806641,1.9941406,3.8349609,2.0126953c0.0224609,0,0.0439453,0,0.0664063,0   c1.6601563,0,3.1855469-0.7851563,3.8984375-2.0136719C54.1775932,49.1298828,54.0145073,48.5175781,53.5369682,48.2402344z"></path></g></svg>