<svg xmlns="http://www.w3.org/2000/svg" xmlns:xlink="http://www.w3.org/1999/xlink" version="1.1" x="0px" y="0px" viewBox="0 0 100 100" style="enable-background:new 0 0 100 100;" xml:space="preserve"><g><path d="M46.1063042,40.5957031c-0.6357422-1.3134766-2.0449219-2.1367188-3.5664063-2.1259766   c-1.4804688,0.0214844-2.8339844,0.8554688-3.4492188,2.1259766c-0.2402344,0.4970703-0.0322266,1.0947266,0.4648438,1.3359375   c0.140625,0.0673828,0.2890625,0.0996094,0.4345703,0.0996094c0.3720703,0,0.7285156-0.2080078,0.9013672-0.5644531   c0.2880859-0.5957031,0.9462891-0.9873047,1.6767578-0.9970703c0.7138672-0.0341797,1.4433594,0.3896484,1.7373047,0.9970703   c0.2412109,0.4970703,0.8398438,0.7050781,1.3359375,0.4648438C46.1385307,41.6904297,46.3465385,41.0927734,46.1063042,40.5957031   z"></path><path d="M53.6316948,49.2558594c-0.4775391-0.2773438-1.0898438-0.1162109-1.3671875,0.3613281   c-0.3720703,0.6396484-1.2802734,1.0644531-2.2666016,1.0644531c-0.0126953,0-0.0263672,0-0.0390625,0   c-0.9667969-0.0117188-1.8603516-0.4384766-2.2236328-1.0634766c-0.2773438-0.4794922-0.8925781-0.640625-1.3662109-0.3623047   c-0.4775391,0.2773438-0.640625,0.8886719-0.3623047,1.3662109c0.7255859,1.2509766,2.2314453,2.0400391,3.9287109,2.0595703   c0.0205078,0,0.0410156,0,0.0625,0c1.7011719,0,3.2646484-0.8037109,3.9951172-2.0585938   C54.2703667,50.1464844,54.1092339,49.5341797,53.6316948,49.2558594z"></path><path d="M75.2918549,51.4296875c0,0,0,0,0-0.0009766l-4.3979492-8.4785156   c0.6166992-0.8654785,0.9643555-1.8947754,0.9643555-2.9824219c0-1.6381836-0.7878418-3.1711426-2.0859375-4.1352539v-4.1733398   C69.7723236,21.921875,61.8377495,14,52.0857964,14h-4.171875c-9.7519531,0-17.6865215,7.921875-17.6865215,17.6591797v4.1733398   c-1.2978516,0.9641113-2.0859375,2.4970703-2.0859375,4.1352539c0,1.0876465,0.3479004,2.1169434,0.9645996,2.9824219   l-4.3981934,8.4794922c-1.7705078,3.4140625-0.5957031,7.5986328,2.6708984,9.5244141   c3.6135254,2.1499023,7.2978497,3.7976074,10.9770489,4.9189453l-0.9848633,0.7998047   c-0.0007324,0.0004883-0.0009766,0.001709-0.001709,0.0024414l-4.6203613,3.7495117   c-1.6015606,1.2890625-2.4531231,3.2900391-2.2773418,5.3525391l0.8027344,9.3085938   C31.3182201,85.6025391,31.7518139,86,32.2703667,86h5.7363281h23.9863281h5.7363319   c0.5185547,0,0.9521484-0.3974609,0.9960938-0.9140625l0.8027344-9.3085938v-0.0009766   c0.1757813-2.0615234-0.6757813-4.0625-2.2744141-5.3486328l-4.6230507-3.7524414   c-0.0009766-0.0007324-0.0009766-0.0019531-0.0019531-0.0024414l-0.9841309-0.7998047   c3.6789589-1.1213379,7.3625526-2.769043,10.9724159-4.9169922C75.887558,59.0283203,77.0623627,54.84375,75.2918549,51.4296875z    M37.0066948,75.6289063v5.2060547V84h-3.8193359l-0.7236328-8.3935547   c-0.1191406-1.3974609,0.4560547-2.7519531,1.5419922-3.6259766l3.0009766-2.4355469V75.6289063z M62.9930229,80.8349609   v-5.2060547v-6.0839844l3.0039101,2.4384766c1.0820313,0.8710938,1.6572266,2.2246094,1.5390625,3.6220703L66.8123627,84   h-3.8193398V80.8349609z M43.0501518,33.0490723c0.0141602-0.0324707,0.0258789-0.067627,0.0400391-0.1003418   c0.1708984-0.3964844,0.3232422-0.8095703,0.4641113-1.232666c0.0380859-0.114502,0.0754395-0.2287598,0.1113281-0.3452148   c0.1428223-0.4631348,0.2744141-0.9350586,0.3811035-1.4255371c0.4135742,0.4611816,0.828125,0.8986816,1.2431641,1.3242188   c0.0129395,0.0131836,0.0258789,0.0258789,0.0390625,0.0390625c0.0771484,0.0788574,0.1542969,0.1540527,0.2314453,0.2316895   c0.1088867,0.1091309,0.2172852,0.2192383,0.3259277,0.3259277c0.4919434,0.4831543,0.9846191,0.9438477,1.4772949,1.3759766   c0.0866699,0.0756836,0.1730957,0.1459961,0.2597656,0.2202148c0.2199707,0.1887207,0.4399414,0.3818359,0.659668,0.5600586   h-5.7050781C42.7461967,33.7089844,42.902935,33.3837891,43.0501518,33.0490723z M33.3133354,43.1328125   c-0.8417969,0-1.6406231-0.3300781-2.2138653-0.8925781c-0.0253906-0.0292969-0.0605469-0.0664063-0.0996094-0.1025391   c-0.5537109-0.5830078-0.8583984-1.3525391-0.8583984-2.1699219c0-1.1259766,0.6064453-2.1748047,1.5839844-2.7353516   c0.4951153-0.2841797,1.029295-0.4287109,1.5878887-0.4287109l0.0429688,6.3291016H33.3133354z M60.9930229,84H39.0066948   v-2.1650391h21.9863281V84z M60.9930229,74.6289063H39.0066948v-6.7089844l1.5908203-1.2910156   c0.1923828-0.1572266,0.3730469-0.3134766,0.5214844-0.4619141c0.171875-0.15625,0.3388672-0.3183594,0.5009766-0.484375   c0.0703125,0.2177734,0.1503906,0.4335938,0.2392578,0.6464844c0.2294922,0.5546875,0.5009766,1.0566406,0.8183594,1.5214844   c0.2939453,0.4453125,0.6279297,0.8623047,0.9882813,1.2333984c0.003418,0.003418,0.0073242,0.0061035,0.010498,0.0095215   c0.0026855,0.0026855,0.0046387,0.0056152,0.0070801,0.0080566c0.2412109,0.2402344,0.5039063,0.4804688,0.7626953,0.6933594   c0.2294922,0.1923828,0.4589844,0.3613281,0.6708984,0.4990234c0.2060547,0.1445313,0.4345703,0.2783203,0.6533203,0.3994141   c0.3046875,0.1699219,0.6357422,0.3251953,0.9580078,0.4521484c0.1611328,0.0683594,0.3222656,0.1269531,0.4960938,0.1884766   c0.0361328,0.0126953,0.1455078,0.0439453,0.1835938,0.0527344c0.0712891,0.0205078,0.1337891,0.03125,0.1347656,0.0361328   c0.2539063,0.0761719,0.5214844,0.1494141,0.7148438,0.1757813c0.1689453,0.0361328,0.3496094,0.0722656,0.5302734,0.0976563   c0.0966797,0.0117188,0.2021484,0.0234375,0.3027344,0.0273438c0.1357422,0.0187988,0.2756348,0.0322266,0.4262695,0.0410156   c0.3132324,0.019043,0.652832,0.019043,0.9658203,0c0.1508789-0.0087891,0.2907715-0.0222168,0.4262695-0.0410156   c0.1005859-0.0039063,0.2089844-0.015625,0.3154297-0.0292969c0.1594238-0.0222168,0.326416-0.0554199,0.4360352-0.0795898   c0.019043-0.0039063,0.0429688-0.0073242,0.0610352-0.0112305c0.0319824-0.0061035,0.0603027-0.0134277,0.0915527-0.0200195   c0.2111816-0.0402832,0.4211426-0.0944824,0.5695801-0.1420898c0.0722656-0.015625,0.140625-0.0351563,0.28125-0.0751953   c0.0371094-0.0087891,0.0888672-0.0244141,0.125-0.0371094c0.1601563-0.0566406,0.3212891-0.1152344,0.4570313-0.1728516   c0.3476563-0.1376953,0.6787109-0.2929688,0.984375-0.4638672c0.2177734-0.1201172,0.4462891-0.2539063,0.6240234-0.3789063   c0.2402344-0.1572266,0.4697266-0.3261719,0.6787109-0.5019531c0.0004883-0.0002441,0.0007324-0.0004883,0.0009766-0.0009766   c0.0048828-0.0039063,0.0100098-0.0068359,0.0146484-0.0107422c0.2636719-0.2177734,0.5263672-0.4580078,0.7802734-0.7109375   c0.3652344-0.3759766,0.6992188-0.7929688,0.9833984-1.2246094c0.3271484-0.4785156,0.5986328-0.9804688,0.8271484-1.5322266   c0.0898438-0.2158203,0.1708984-0.4335938,0.2402344-0.6474609c0.1523438,0.1552734,0.3085938,0.3056641,0.4677734,0.4501953   c0.005127,0.005127,0.0107422,0.0087891,0.015625,0.013916c0.0063477,0.0056152,0.0112305,0.0124512,0.0175781,0.0183105   c0.0029297,0.0026855,0.0068359,0.003418,0.0097656,0.0058594c0.1677246,0.1635742,0.3344727,0.3110352,0.5126953,0.4560547   l1.5898438,1.2910156V74.6289063z M43.2217827,63.5615234c0.126709-0.2197266,0.2438965-0.4433594,0.3503418-0.6660156   c0.1574707-0.3134766,0.2941895-0.6381836,0.4208984-0.9675293c0.0366211-0.0952148,0.0693359-0.1914063,0.1032715-0.2878418   c0.0895996-0.2543945,0.1699219-0.5119629,0.2409668-0.7729492c0.0249023-0.0917969,0.0522461-0.1821289,0.074707-0.2744141   c0.0810547-0.3305664,0.1518555-0.6638184,0.2021484-1.0009766c0.0473633,0.0112305,0.0969238,0.0144043,0.1445313,0.0251465   c0.0056152,0.0012207,0.0114746,0.0021973,0.017334,0.003418c0.1491699,0.032959,0.2990723,0.0622559,0.4501953,0.0905762   c0.269043,0.0507813,0.5397949,0.0935059,0.8129883,0.1286621c0.0981445,0.0126953,0.1950684,0.0297852,0.2937012,0.0405273   c0.074707,0.0080566,0.1499023,0.013916,0.2246094,0.0209961c0.4484863,0.0412598,0.8999023,0.0686035,1.3564453,0.0686035   h4.171875c0.4570313,0,0.9086914-0.0273438,1.3569336-0.0686035c0.0744629-0.0070801,0.1491699-0.0129395,0.2233887-0.0209961   c0.098877-0.010498,0.1958008-0.0275879,0.2941895-0.0402832c0.2746582-0.0354004,0.546875-0.0783691,0.8171387-0.1293945   c0.1481934-0.027832,0.2954102-0.0566406,0.4421387-0.0888672c0.0031738-0.0007324,0.0068359-0.0012207,0.0102539-0.0019531   c0.0505371-0.0114746,0.1035156-0.0151367,0.1538086-0.0268555c0.046875,0.3164063,0.111084,0.628418,0.1848145,0.9384766   c0.0209961,0.0876465,0.0466309,0.1743164,0.0695801,0.2614746c0.0668945,0.2521973,0.142334,0.5026855,0.2270508,0.7507324   c0.0322266,0.0944824,0.0639648,0.189209,0.0991211,0.2832031c0.1196289,0.3215332,0.2492676,0.640625,0.3999023,0.9545898   c0.0175781,0.0361328,0.0449219,0.09375,0.0849609,0.1601563c0.0039063,0.0078125,0.0085449,0.0144043,0.0124512,0.0222168   c0.1008301,0.2053223,0.2055664,0.4064941,0.3190918,0.6027832c-0.0097656,0.107666-0.0219727,0.2211914-0.0366211,0.3505859   c-0.0166016,0.0576172-0.0273438,0.1162109-0.0332031,0.1757813c-0.0048828,0.0595703-0.0146484,0.1240234-0.0488281,0.2597656   c-0.0761719,0.4013672-0.2001953,0.8076172-0.3691406,1.2109375c-0.1767578,0.4257813-0.3828125,0.8085938-0.640625,1.1855469   c-0.2231445,0.3395996-0.4777832,0.6557617-0.7587891,0.9462891c-0.1950684,0.1933594-0.4057617,0.3864746-0.6230469,0.5664063   c-0.1669922,0.1396484-0.3339844,0.2617188-0.5380859,0.3955078c-0.1494141,0.1054688-0.3173828,0.2001953-0.4736328,0.2880859   c-0.2431641,0.1347656-0.4951172,0.2509766-0.7724609,0.3603516c-0.1083984,0.046875-0.2167969,0.0849609-0.3339844,0.1269531   c-0.0429688,0.0107422-0.0839844,0.0234375-0.125,0.0351563c-0.0019531,0.0009766-0.1445313,0.0390625-0.1464844,0.0390625   c-0.1748047,0.0527344-0.3515625,0.0966797-0.5566406,0.1367188c-0.1240234,0.0263672-0.2558594,0.0527344-0.3662109,0.0683594   c-0.0917969,0.0126953-0.1904297,0.0117188-0.2832031,0.0244141c-0.4453125,0.0683594-0.9042969,0.0683594-1.3496094,0   c-0.0898438-0.0117188-0.2060547-0.0136719-0.2705078-0.0224609c-0.1230469-0.0175781-0.2548828-0.0439453-0.3994141-0.0751953   c-0.1845703-0.0351563-0.3613281-0.0791016-0.5361328-0.1318359C48.0945854,69.5,47.9969292,69.4736328,47.9725151,69.4677734   c-0.0410156-0.0117188-0.0820313-0.0244141-0.125-0.0351563c-0.1113281-0.0390625-0.2246094-0.0800781-0.359375-0.1376953   c-0.2519531-0.0986328-0.5039063-0.2148438-0.7460938-0.3486328c-0.1572266-0.0888672-0.3251953-0.1835938-0.5029297-0.3085938   c-0.1708984-0.111084-0.3342285-0.2314453-0.5153809-0.3815918c-0.2165527-0.1787109-0.4318848-0.3754883-0.6174316-0.5598145   c-0.2783203-0.2871094-0.5341797-0.6054688-0.7685547-0.9609375c-0.2480469-0.3632813-0.4541016-0.7460938-0.6318359-1.1748047   c-0.1679688-0.4003906-0.2919922-0.8066406-0.3857422-1.2841797c-0.0166016-0.0595703-0.0263672-0.1240234-0.03125-0.1835938   c-0.0058594-0.0595703-0.0263672-0.1767578-0.0429688-0.2333984   C43.2366753,63.7617188,43.2303276,63.6606445,43.2217827,63.5615234z M64.6434174,39.9033203v4.2294922v1.3017578   c0,0.3964844-0.0231934,0.7873535-0.0595703,1.1745605c-0.0100098,0.1091309-0.026123,0.2165527-0.0390625,0.3249512   c-0.0349121,0.2910156-0.0776367,0.5795898-0.1323242,0.8640137c-0.019043,0.098877-0.0385742,0.1975098-0.0598145,0.2958984   c-0.0734863,0.3383789-0.1577148,0.6728516-0.2583008,1.0007324c-0.0085449,0.027832-0.0153809,0.0566406-0.0241699,0.0844727   c-0.856205,2.7246094-2.6213417,5.0507813-4.9387245,6.6247559c-0.0227051,0.0151367-0.045166,0.0302734-0.0678711,0.045166   c-0.2775879,0.1860352-0.5651855,0.3571777-0.857666,0.5209961c-0.0754395,0.0415039-0.1491699,0.0856934-0.2255859,0.1259766   c-0.2333984,0.1245117-0.4746094,0.2351074-0.7163086,0.3449707c-0.4255371,0.190918-0.8601074,0.3679199-1.3129883,0.5134277   c-0.1708984,0.0568848-0.3464355,0.1005859-0.5200195,0.1499023c-0.2104492,0.0581055-0.4211426,0.1162109-0.6357422,0.1635742   c-0.1306152,0.0290527-0.262207,0.0541992-0.394043,0.0791016c-0.2680664,0.0500488-0.5390625,0.0913086-0.8127441,0.1240234   c-0.1108398,0.0134277-0.2211914,0.0292969-0.3327637,0.0395508c-0.3857422,0.0356445-0.7749023,0.059082-1.1699219,0.059082   h-4.171875c-0.3945313,0-0.7836914-0.0234375-1.1691895-0.059082c-0.112793-0.010498-0.2241211-0.0263672-0.3361816-0.0397949   c-0.2714844-0.0327148-0.5402832-0.0734863-0.8061523-0.123291c-0.1345215-0.0253906-0.269043-0.0510254-0.4023438-0.0810547   c-0.2131348-0.046875-0.4221191-0.1044922-0.6308594-0.1621094c-0.1738281-0.0493164-0.3496094-0.0930176-0.5205078-0.1499023   c0,0-0.0004883,0-0.0007324,0c-0.0031738-0.0012207-0.0065918-0.0019531-0.0100098-0.0029297   c-0.2900391-0.0932617-0.5727539-0.1994629-0.8518066-0.3115234c-0.0334473-0.0136719-0.0683594-0.0234375-0.1015625-0.0373535   c-0.095459-0.0393066-0.1855469-0.0869141-0.279541-0.128418c-0.2744141-0.1225586-0.5466309-0.2487793-0.8103027-0.3901367   c-0.0546875-0.0290527-0.107666-0.060791-0.1618652-0.0905762c-0.3178711-0.1762695-0.6296387-0.3620605-0.9296875-0.5644531   c-0.0031738-0.0019531-0.0061035-0.0039063-0.0090332-0.0058594c-2.3308105-1.574707-4.1054688-3.909668-4.9648438-6.6455078   c-0.0083008-0.026123-0.0146484-0.0529785-0.0227051-0.0793457c-0.1010742-0.3291016-0.1855469-0.6650391-0.2595215-1.005127   c-0.0209961-0.0976563-0.0407715-0.1960449-0.0593262-0.2946777c-0.0546875-0.284668-0.0976563-0.5732422-0.1328125-0.864502   c-0.0126953-0.1083984-0.0288086-0.2158203-0.0390625-0.3249512c-0.0361328-0.387207-0.0595703-0.7780762-0.0595703-1.1745605   v-1.3017578v-4.7216797c0.0131836-0.001709,0.0258789-0.0053711,0.0388184-0.0070801   c0.0383301-0.0053711,0.0754395-0.0148926,0.1135254-0.020752c0.2258301-0.0349121,0.4501953-0.074707,0.6704102-0.1269531   c0.0419922-0.0100098,0.0827637-0.0244141,0.1247559-0.0351563c0.0043945-0.0009766,0.0085449-0.0024414,0.0129395-0.003418   c0.0866699-0.0222168,0.1721191-0.0478516,0.2580566-0.0725098c0.1289063-0.0371094,0.2587891-0.0715332,0.385498-0.114502   c0.0893555-0.0302734,0.1762695-0.0678711,0.2648926-0.1010742c0.090332-0.0339355,0.1806641-0.0666504,0.2700195-0.1035156   c0.0686035-0.0283203,0.1376953-0.0559082,0.2058105-0.0861816c0.1413574-0.0625,0.2788086-0.1340332,0.4174805-0.2043457   c0.0026855-0.0014648,0.0053711-0.0024414,0.0083008-0.0039063c0.0986328-0.050293,0.197998-0.0981445,0.2954102-0.1520996   c0.1777344-0.0986328,0.3510742-0.2072754,0.5234375-0.3186035c0.0300293-0.0195313,0.0605469-0.0378418,0.090332-0.0576172   c0.0085449-0.0056152,0.0170898-0.0107422,0.0253906-0.0163574c0.0595703-0.0395508,0.1210938-0.0737305,0.1799316-0.1149902   c0.2653809-0.1855469,0.5234375-0.3867188,0.7741699-0.6025391c0.0639648-0.0551758,0.1242676-0.1169434,0.1875-0.1740723   c0.184082-0.166748,0.3647461-0.338623,0.5395508-0.5214844c0.0834961-0.0876465,0.1640625-0.1796875,0.2453613-0.270752   c0.0842285-0.0944824,0.1723633-0.182373,0.2541504-0.2807617h9.859375   c0.0463867,0.0283203,0.0930176,0.0490723,0.1391602,0.0769043c0.5,0.3007813,1.0012207,0.5820313,1.5041504,0.8310547   c0.0288086,0.0141602,0.0576172,0.026123,0.0861816,0.0400391c0.4956055,0.2424316,0.9924316,0.4572754,1.4907227,0.6496582   c0.0578613,0.0224609,0.1154785,0.0478516,0.1733398,0.0695801c0.4919434,0.184082,0.9853516,0.3388672,1.4794922,0.4743652   c0.0878906,0.0239258,0.1757813,0.0493164,0.2636719,0.0717773c0.3544922,0.0908203,0.7097168,0.1713867,1.0654297,0.2373047   c-1.463623,0.0351563-2.7995605,0.8637695-3.4091797,2.121582c-0.2412109,0.4970703-0.0341797,1.0957031,0.4628906,1.3359375   c0.140625,0.0683594,0.2890625,0.1005859,0.4355469,0.1005859c0.3710938,0,0.7275391-0.2070313,0.9003906-0.5634766   c0.2890625-0.5957031,0.9482422-0.9882813,1.6787109-0.9980469c0.7695313-0.0019531,1.4423828,0.3896484,1.7363281,0.9970703   c0.2412109,0.4970703,0.8398438,0.7050781,1.3359375,0.4648438c0.4970703-0.2412109,0.7050781-0.8388672,0.4648438-1.3359375   c-0.4621582-0.9550781-1.3417969-1.6408691-2.3662109-1.9462891c0.2998047,0.0307617,0.5996094,0.0537109,0.8999023,0.0664063   c0.072998,0.0031738,0.1459961,0.0024414,0.2189941,0.0046387c0.328125,0.0092773,0.6564941,0.0080566,0.9853516-0.0036621   c0.0537109-0.0019531,0.1074219-0.0043945,0.1611328-0.0068359c0.1342773-0.0063477,0.2683105-0.0073242,0.402832-0.0170898   c0.0114746-0.0007324,0.0229492-0.0021973,0.0344238-0.0031738c0.2287598-0.0170898,0.4575195-0.0439453,0.6865234-0.0712891   c0.0429688-0.005127,0.0856934-0.0080566,0.1289063-0.0134277c0.2426758-0.0310059,0.4855957-0.0717773,0.7285156-0.1142578   c0.0712891-0.0124512,0.142334-0.0219727,0.2133789-0.0354004c0.0844727-0.0158691,0.1689453-0.032959,0.253418-0.0500488   c0.0913086-0.0187988,0.1826172-0.0422363,0.2741699-0.0625c0.3039551-0.0678711,0.6076698-0.1445313,0.911869-0.2304688   c0.0671387-0.019043,0.1342773-0.0310059,0.2011719-0.0507813V39.9033203z M69.028183,42.1083984   c-0.0097656,0.0085449-0.0068359,0.0080566-0.0153809,0.0158691c-0.0458984,0.0424805-0.0756836,0.0751953-0.076416,0.0778809   c-0.609375,0.6005859-1.4082031,0.9306641-2.25,0.9306641h-0.0429688v-3.2294922v-3.0996094h0.0429688   c0.5585938,0,1.0927734,0.1445313,1.5878906,0.4287109c0.9775391,0.5605469,1.5839844,1.609375,1.5839844,2.7353516   C69.8582611,40.7705078,69.5643158,41.5283203,69.028183,42.1083984z"></path></g></svg>